<svg width="754" height="828" viewBox="0 0 754 828" fill="none" xmlns="http://www.w3.org/2000/svg">
<g clip-path="url(#clip0_1_3)">
<path d="M92.54 318.89C87.23 312.55 81.92 306.21 75.81 298.93C79.61 297.35 83.74 295.64 88.4 293.71C80.85 279.03 67.17 272.32 51.64 267.59C52.72 264.97 53.51 263.05 54.69 260.19C48.37 256.95 42.19 253.67 35.9 250.6C30.32 247.88 29.04 245.64 32.61 240.56C37.5 233.6 43.29 227.26 48.85 220.79C50.46 218.92 52.62 217.52 56.04 214.61C43.79 212.05 33.12 209.82 21.38 207.36C37.73 189.85 58.72 184.53 81.39 180.78C69.99 165.43 56.38 153.38 41.53 142.52C45.5 135.24 51.92 133.66 58.78 133.12C72.39 132.06 85.62 134.26 98.64 138.09C99.67 138.39 100.74 138.56 102.41 138.93C100.96 135.7 99.76 133.03 98.2 129.56C101.1 130.73 103.29 131.62 106.29 132.83C104.76 121.11 103.32 110.14 101.88 99.16C100.58 89.25 99.29 79.34 97.99 69.43C97.33 64.44 99.58 63.04 104.35 63.57C117.19 65.02 127.88 71.5 138.7 77.73C140.08 78.53 141.46 79.35 143.66 80.64C143.26 61.49 140.82 42.72 149.72 24.49C169.01 38.42 185.1 54.12 198.92 72.49C199.69 70.44 200.42 68.48 201.44 65.79C202.73 69.23 203.71 71.85 205.21 75.85C207.57 71.56 209.44 68.26 211.23 64.91C218.97 50.4 226.68 35.87 234.42 21.36C235.02 20.24 235.82 19.24 236.55 18.19C239.05 14.59 241.39 14.39 243.13 18.72C246.48 27.09 249.79 35.48 252.92 43.94C254.35 47.82 255.3 51.88 256.97 57.56C264.14 41.45 270.74 26.63 277.34 11.81C277.9 11.75 278.46 11.69 279.02 11.62C282.21 19.08 285.4 26.55 288.73 34.34C289.8 32.8 290.67 31.54 291.95 29.7C292.92 34.5 293.75 38.61 294.67 43.15C322.66 22.55 353.02 8.49 387.12 -0.0299988C377.83 12.91 369.44 24.6 361.04 36.29C361.46 36.77 361.87 37.25 362.29 37.73C389.6 29.65 417.11 22.57 447.09 20.59C437.13 30.47 426.45 38.02 420.07 49.29C420.35 49.69 420.64 50.08 420.92 50.48C426.61 48.53 432.3 46.59 437.98 44.64C438.15 44.94 438.31 45.24 438.48 45.55C430.45 52.23 422.41 58.91 413.82 66.05C419.83 67.49 424.76 68.93 429.8 69.72C431.15 69.93 433.07 68.48 434.27 67.32C445.4 56.46 456.37 45.43 467.53 34.6C469.49 32.7 472.13 31.51 475.14 29.55C477.18 38.68 479.01 46.86 481.14 56.38C483.14 53.69 484.68 52.04 485.74 50.13C492.64 37.77 501.02 26.61 511.96 17.5C512.93 16.69 513.92 15.81 515.05 15.31C516.57 14.64 518.25 14.31 519.85 13.83C520.25 15.34 521.03 16.87 520.98 18.36C520.82 23.84 520.1 29.32 520.12 34.79C520.15 41.16 520.74 47.53 522.08 54.34C523.68 51.77 525.27 49.2 526.87 46.63C527.12 47 527.38 47.36 527.63 47.73C529.12 47.02 530.82 46.59 532.05 45.57C542 37.33 551.73 28.81 561.85 20.79C564.43 18.75 568.2 18.22 571.21 17.08C570.16 28.68 568.87 39.24 568.32 49.83C567.77 60.51 568.77 71.12 571.87 82.11C573.19 81.18 573.99 80.81 574.51 80.2C575 79.61 575.2 78.77 575.7 77.65C576.39 83.16 577.01 88.14 577.73 93.92C596.76 74.02 620.37 63.37 645.66 52.67C641.26 80.6 637.09 107 632.75 134.59C635.82 133.58 637.16 133.15 639.29 132.45C637.24 135.88 635.56 138.69 633.15 142.72C641.87 140.55 649.1 137.96 656.52 137.11C665.47 136.08 674.66 135.7 683.6 136.55C691.09 137.26 692.03 141.28 687.14 147.05C679.22 156.38 671.22 165.64 663.32 174.98C661.71 176.88 660.38 179.02 658.46 181.68C678.95 184.91 698.27 189.2 713.66 206.03C702.84 209.52 693.18 212.64 683.25 215.84C688.53 222.07 693.71 227.96 698.61 234.07C700.48 236.4 701.9 239.16 703.11 241.91C703.56 242.92 703.28 245.05 702.52 245.67C694.85 251.97 686.62 257.35 681.33 266.47C679.03 270.43 673.18 272.7 668.53 274.84C661.9 277.9 659.05 283.86 655.78 289.57C655.35 290.33 656.08 292.36 656.9 293.08C658.2 294.23 660.05 294.75 661.65 295.56C665.23 297.39 666.56 299.22 663.14 302.95C654.47 312.42 651.85 324.46 651.06 336.67C650.06 351.95 649.73 367.31 650 382.62C650.18 392.69 652.08 402.72 652.95 412.79C653.31 416.96 655.38 417.29 658.45 415.92C667.37 411.92 676.74 410.75 686.43 410.96C697.7 411.2 707.68 415.03 715.68 422.65C733.28 439.43 745.4 459.62 752.15 483.14C755.38 494.39 754.15 504.99 748.71 514.73C739.29 531.6 729.38 548.22 718.87 564.43C712.37 574.47 704.69 583.8 696.98 592.99C690.02 601.3 679.94 602.83 670.24 600.84C661.7 599.09 653.6 594.91 645.48 591.43C641.25 589.61 640.08 590 639.89 594.79C639.2 612.95 642.73 630.26 650.63 646.62C652.29 650.05 653.3 652.79 651.08 656.86C641.92 673.63 633.8 690.98 624.31 707.55C621.12 713.12 614.83 716.83 610.29 721.7C598.11 734.75 586.39 748.23 573.98 761.06C554.65 781.05 532.52 797.09 506.22 806.92C483.61 815.37 460.24 820.25 436.36 823.58C410.69 827.16 384.94 828.79 359.15 827.49C335.77 826.3 312.45 824.19 289.38 819.28C267.12 814.54 245.04 809.58 224.63 799.21C215.79 794.72 207.33 789.46 198.9 784.22C180.68 772.89 166.53 757.22 154.05 740.13C147.52 731.2 140.53 723.17 131.64 716.52C128.05 713.83 125.68 709.27 123.34 705.22C115.52 691.74 108.13 678 100.21 664.58C97.52 660.01 100.42 656.81 101.9 653.43C107.92 639.67 110.39 625.12 111.97 610.38C112.74 603.19 112.8 595.93 113.28 586.91C110.36 588.82 108.92 589.63 107.62 590.63C95.81 599.61 82.58 603.38 67.83 601.29C58.39 599.95 53.19 592.78 48.22 585.9C40.03 574.56 31.05 563.48 25 551.02C20.23 541.19 13.29 533.05 8.13999 523.59C-1.69001 505.52 -2.73001 487.91 5.48999 469.09C13.13 451.61 21.5 434.73 36.02 421.87C48.9 410.46 64.25 407.63 80.83 410.58C86.32 411.56 91.7 413.18 98.63 414.88C99.46 393.91 100.27 373.4 101.08 352.89C100.49 340.97 99.58 329.14 92.51 318.85L92.54 318.89Z" fill="black"/>
<path d="M744.73 488.69C741.54 471.19 732.86 456.35 724.8 444.15C724.53 443.73 724.26 443.3 724 442.88C723.43 441.97 722.83 441.02 722.21 440.12C710.74 423.57 696.69 416.38 679.26 418.12C664.64 419.58 650.37 425.06 635.64 434.86L635.23 418.33C634.97 407.93 634.71 397.54 634.45 387.14C634.29 380.79 634.15 374.44 634 368.09L633.81 359.93C633.83 358.17 633.85 356.41 633.87 354.66C633.92 350.82 633.96 346.85 633.98 342.94V342.07C634.04 329.81 634.09 317.13 629.25 305.1C627.97 301.91 628.02 297.14 629.38 293.48C636.36 274.7 632.7 256.55 628.35 239.57L627.55 236.45L626.96 235.18C626.73 234.78 626.5 234.37 626.27 233.97C626.32 233.92 626.4 233.85 626.51 233.73C626.55 233.7 626.56 233.64 626.55 233.6L626.44 233.18C626.24 232.5 626.07 231.79 625.89 231.11C625.51 229.62 625.12 228.07 624.52 226.64C622.26 221.28 619.87 215.87 617.56 210.64C616.67 208.62 615.78 206.61 614.9 204.59C614.65 204.02 614.42 203.42 614.19 202.85C613.7 201.61 613.19 200.33 612.52 199.16C598.63 174.92 577.37 154.33 552.65 141.17C524.25 126.06 492.87 121.64 461.88 128.39L460.65 128.66C451.71 130.59 451.54 130.63 450.09 139.87C447.19 154.25 445.82 170.89 457.64 185.25C458.46 186.25 459.13 187.42 459.77 188.55C460.11 189.15 460.46 189.76 460.83 190.35C467.28 200.55 468.13 200.79 479.24 195.35C479.37 195.29 479.44 195.16 479.49 195.03L483.3 194.87C482.84 195.34 482.4 195.85 481.97 196.35C480.85 197.63 479.7 198.96 478.28 199.61C470.65 203.13 470.53 209.83 470.43 216.3C470.43 216.74 470.41 217.18 470.41 217.62C470.41 217.97 470.95 218.22 471.86 218.6C472.17 218.73 472.49 218.87 472.74 219C472.77 219.02 472.81 219.02 472.84 219.01L491.51 213.66C502.64 211.59 514.48 211.93 528.77 214.73C528.81 214.73 528.85 214.73 528.88 214.7L532.05 215.77C532.05 215.77 532.09 215.77 532.12 215.77L535.27 217.09L549.15 226.28C549.02 226.26 548.9 226.25 548.77 226.23C548.07 226.14 547.35 226.05 546.75 225.76C536.15 220.66 525.13 217.72 513.99 217.03C503.11 216.36 491.8 217.81 480.34 221.37C479.99 221.58 479.64 221.78 479.29 221.99L475.87 222.92L458.69 228.09L458.38 227.36L461.86 224.41C461.86 224.41 461.91 224.33 461.91 224.28L458.55 203.53L458.75 199.81C458.75 199.81 458.75 199.76 458.73 199.73L447.69 181.33C445.79 177.43 442.44 175.53 437.72 175.71C431.81 175.93 425.79 176.2 419.98 176.46C417.59 176.57 415.2 176.68 412.81 176.78L413.61 174.64L442.18 169C442.24 168.99 442.29 168.93 442.29 168.87V132.99C442.29 132.99 442.27 132.91 442.24 132.88C442.2 132.85 442.16 132.85 442.12 132.86C441.07 133.17 439.97 133.48 438.84 133.8C436.2 134.54 433.47 135.31 430.73 136.23C406.4 144.36 386.99 155.14 371.41 169.18C371.38 169.21 371.36 169.26 371.37 169.3L370.54 170.13C370.54 170.13 370.46 170.14 370.44 170.17L369.42 171.2C369.42 171.2 369.39 171.17 369.37 171.16C369.32 171.14 369.26 171.15 369.22 171.19C367 173.42 364.78 175.65 362.56 177.88C362.52 177.9 362.51 177.92 362.5 177.97C362.49 178.02 362.5 178.07 362.55 178.1L361.7 178.95C361.7 178.95 361.68 178.96 361.67 178.97L360.43 180.22C360.43 180.22 360.4 180.26 360.39 180.29L359.5 181.2C359.5 181.2 359.5 181.2 359.49 181.2L358.28 182.43C358.28 182.43 358.26 182.46 358.25 182.48L357.25 183.55L356.21 184.82L355.06 186.6C355.06 186.6 355.01 186.56 354.98 186.55C354.93 186.55 354.88 186.55 354.84 186.6C354.05 187.64 353.26 188.69 352.47 189.73C352.43 189.78 352.44 189.85 352.47 189.9L351.52 191.1C351.52 191.1 351.48 191.15 351.48 191.18L350.65 192.23C350.65 192.23 350.61 192.25 350.6 192.27L342.01 204.56C342.31 203.26 342.59 202.06 342.85 200.93C343.45 198.34 343.96 196.1 344.53 193.9C349.8 173.63 357.75 157.43 368.81 144.39C369.01 144.27 369.14 144.12 369.18 143.95C369.21 143.83 369.2 143.71 369.15 143.58C369.17 143.58 369.2 143.58 369.23 143.58C369.27 143.58 369.3 143.57 369.33 143.54L377.28 135.96C377.28 135.96 377.33 135.88 377.32 135.84C377.32 135.8 377.29 135.76 377.24 135.74C363 128.75 347.46 125.48 328.39 125.48C328.17 125.48 327.94 125.48 327.72 125.48C311.54 125.54 295.08 126 279.17 126.44C269.03 126.72 258.55 127.01 248.23 127.2C244.67 127.26 242.77 128.68 241.87 131.93C241.57 133.02 241.37 134.15 241.19 135.24C241.02 136.23 240.84 137.26 240.59 138.24C238.79 145.21 237.94 153.91 247.41 159.52L247.34 160.43L235.08 157.45C235.02 157.44 234.96 157.46 234.93 157.52L221.89 182.36C221.89 182.36 221.89 182.36 221.89 182.37C221.14 182.91 220.24 183.44 219.37 183.94C217.3 185.14 215.16 186.39 214.74 188.07C213.75 192.07 213.61 196.35 213.48 200.48C213.43 202.15 213.37 203.87 213.26 205.55C213.26 205.57 213.26 205.58 213.26 205.6L214.9 211.18C216.76 216.99 220.62 219.17 226.69 217.86C229.38 217.28 232.16 216.89 234.85 216.51C236.06 216.34 237.3 216.17 238.5 215.98H242.85C244.72 216.05 246.59 216.13 248.46 216.21C252.53 216.37 256.74 216.54 260.88 216.65C271.96 216.92 280.63 219.05 288.17 223.33C290.13 224.44 291.87 226.02 293.55 227.55C294.29 228.22 295.06 228.92 295.84 229.57L295.12 230.65C274.03 217.67 250.62 217.47 228.46 219.19C228.45 219.19 228.43 219.19 228.42 219.19L224.34 220.78H224.3C224.3 220.78 224.23 220.78 224.2 220.81C223.97 221.01 223.67 221.22 223.38 221.42C222.65 221.93 222.01 222.37 222.07 222.82C222.44 225.66 223.04 228.5 223.84 231.25C224.59 233.83 225.49 236.42 226.35 238.91C226.73 240 227.11 241.1 227.47 242.2C227.47 242.22 227.49 242.23 227.5 242.25C227.65 242.41 227.81 242.63 227.96 242.85C228.35 243.39 228.71 243.86 229.04 243.81C234.76 242.91 240.28 244.06 245.63 245.18C248.03 245.68 250.51 246.2 252.98 246.53C256.68 247.02 258.81 248.46 260.87 250.48C267.33 256.8 273.72 263.4 279.9 269.79C282.32 272.29 284.74 274.79 287.16 277.28C290.27 280.47 293.38 283.64 296.55 286.87L300.39 290.79L295.91 289.76C274.33 281.18 253.67 278.1 234.51 280.61C214.56 283.22 195.59 291.97 178.11 306.62L153.2 329.37C153.2 329.28 153.21 329.18 153.22 329.09C153.26 328.5 153.3 327.89 153.58 327.46C156.11 323.5 158.63 319.54 161.16 315.58C171.9 298.72 183.01 281.29 194.21 264.31C196.13 261.4 198.81 258.92 201.4 256.52C202.59 255.41 203.83 254.27 204.98 253.1L218.78 245.74L221.32 245.4C221.32 245.4 221.39 245.37 221.41 245.34C221.43 245.31 221.44 245.27 221.43 245.23C221.17 244.05 220.92 242.88 220.69 241.76C220.15 239.16 219.63 236.71 218.94 234.28C218.33 232.15 217.51 230.05 216.72 228.01C216.37 227.11 216.01 226.19 215.67 225.27C215.65 225.23 215.62 225.19 215.57 225.18L210.28 224.01L212.41 219.82C212.41 219.82 212.53 219.73 212.59 219.69L212.84 219.76C212.84 219.76 212.88 219.76 212.9 219.76L213.9 219.6C213.95 219.6 214 219.55 214.01 219.5C214.02 219.45 214.01 219.39 213.97 219.36L213.24 218.75C212.12 216.9 211 215.04 209.89 213.2L208.2 209.94C208.21 208 208.23 206.07 208.24 204.13C208.27 199.36 208.31 194.42 208.3 189.56C208.3 189.3 208.3 189.03 208.3 188.76C208.34 186.4 208.38 183.72 204.62 183.53L203.64 181.62L205.85 181.16C216.6 182.97 217.68 182.41 220.26 173.83C220.26 173.8 220.26 173.78 220.26 173.75L221.86 171.61C228.79 159.87 234.58 149.11 235.3 136.33L236.77 128.49C236.77 128.49 236.77 128.4 236.73 128.37C236.7 128.34 236.66 128.32 236.61 128.33C235.88 128.43 235.19 128.5 234.54 128.58C233.2 128.73 232.05 128.86 230.89 129.09C217.02 131.85 203.87 136.73 191.79 143.6C180.12 150.24 169.12 158.93 159.09 169.44C145.04 184.16 135.41 199.53 129.66 216.44C128.64 220.5 127.36 224.63 126.12 228.62C123.4 237.39 120.59 246.46 120.3 255.48C119.32 286.12 120.03 317.32 120.72 347.49C120.79 350.62 120.86 353.75 120.93 356.88C120.97 358.57 121.03 360.29 121.09 361.94C121.44 371.55 121.78 380.63 117.82 389.67C116.81 391.98 116.73 394.74 116.65 397.41C116.64 397.9 116.62 398.39 116.6 398.88C116.25 407.35 115.97 415.96 115.71 424.28C115.61 427.4 115.51 430.52 115.41 433.64C112.66 432.26 109.91 430.73 107.25 429.26C101.26 425.95 95.06 422.52 88.55 420.46C65.09 413.04 46.63 418.78 32.1 437.99C22.35 450.89 15.01 465.49 9.65999 482.61C5.81999 494.91 7.82999 506.49 15.83 518.01C15.85 518.04 15.89 518.06 15.93 518.07C15.97 518.07 16.01 518.07 16.04 518.03C24.13 510.54 32.93 507.46 42.95 508.6L49.37 513.11L28.54 541.28C28.54 541.28 28.5 541.39 28.54 541.43C29.79 543.5 31.05 545.7 32.39 548.03C35.49 553.43 39 559.55 43.05 565.11C47.74 571.55 53.02 577.71 58.14 583.67C60.36 586.25 62.65 588.92 64.86 591.58C64.88 591.6 64.9 591.61 64.92 591.62C65.61 591.85 66.3 592.12 66.97 592.39C68.43 592.97 69.95 593.57 71.49 593.74C85.21 595.24 97.33 590.9 108.54 580.48C113.58 575.79 116 570.39 115.93 563.97C115.93 563.95 115.93 563.92 115.93 563.89C115.93 563.87 115.91 563.85 115.89 563.84L116.88 560.68C116.88 560.68 116.88 560.65 116.88 560.63L118.22 556.32C121.56 548.58 121.25 547.22 114.96 541.76C113.08 539.93 111.19 538.06 109.35 536.24C104.98 531.9 100.46 527.42 95.76 523.29C94.14 521.86 92.2 521.35 90.29 521.84C88.02 522.42 86.1 524.34 85.15 526.96C83.03 532.8 80.72 538.69 78.49 544.38C77.61 546.63 76.73 548.87 75.86 551.12L75.21 546.36C75.43 544.94 75.67 543.49 75.91 542.09C76.44 538.95 76.99 535.69 77.27 532.47C77.84 525.97 78.8 520.19 84.79 515.39C89.23 511.83 92.14 505.69 93.39 501.12C95.53 493.27 92.67 484.46 85.74 477.56C78 469.84 67.47 466.63 58.26 469.17C53.75 470.41 49.59 473.17 45.56 475.84C43.91 476.93 42.22 478.06 40.51 479.07L47.57 469.57C59.64 461.12 72.51 461.04 86.92 469.32L101.1 487.05L102.07 490.13C102.02 490.16 101.99 490.21 102 490.27C103 497.79 101.66 505.2 97.89 512.92C97.21 514.32 97.75 517.28 98.9 518.39C104.32 523.63 110.01 528.78 115.51 533.76C117.34 535.42 119.17 537.07 120.98 538.73L123.13 541L126.34 545.31L124.41 556.22L123.97 558.6L123.27 560.61L121.13 573.9L120.27 603.41C119.82 606.49 119.4 609.62 118.99 612.65C118.03 619.72 117.04 627.02 115.7 634.14C114.71 639.4 113.23 644.65 111.8 649.74C111.16 652 110.5 654.35 109.89 656.67C109.79 657.35 109.59 658.1 109.4 658.82C108.97 660.42 108.54 662.07 109.13 663.18C116.45 676.99 124.11 690.6 131.29 703.26C133.11 706.47 134.95 708.86 136.92 710.58C141.21 714.31 145.6 717.81 150.25 721.51C152.09 722.97 153.99 724.49 155.89 726.02C155.95 726.07 156.03 726.06 156.08 726L158.92 722.63L159.97 721.52L173.4 717.09C173.4 717.09 173.44 717.07 173.45 717.06L186.11 704.95C186.11 704.95 186.16 704.87 186.15 704.82C186.15 704.77 186.11 704.74 186.07 704.72L182.78 703.4C182.02 702.68 181.26 701.97 180.5 701.25C173.93 694.97 167.07 687.32 168.82 675.98L179.88 665.04C179.88 665.04 179.93 664.94 179.91 664.89L173.96 651.8C173.1 648.04 170.33 646.49 165.71 647.16C161.13 647.84 156.51 648.8 152.05 649.73C150.25 650.11 148.4 650.49 146.57 650.86L147.21 647.68C152.75 642.35 159.93 639.85 169.81 639.83C169.85 639.83 169.89 639.81 169.91 639.78C169.94 639.75 169.95 639.71 169.94 639.67C169.65 637.93 169.35 636.23 169.05 634.58C168.41 631 167.81 627.61 167.38 624.17C166.34 615.96 165.38 607.6 164.44 599.52C164.05 596.17 163.67 592.82 163.27 589.49L163.33 582.54C163.41 573.24 163.48 563.93 163.55 554.65C164.06 551.51 164.58 548.38 165.09 545.22L165.49 539.76L165.19 537.5C165.19 537.5 165.18 537.46 165.17 537.44L162.88 534.21C162.88 534.21 162.86 534.18 162.84 534.17C162.03 533.67 161.18 533.18 160.36 532.72C158.55 531.69 156.67 530.62 155.11 529.26C152.42 526.93 149.87 524.34 147.41 521.84C146.49 520.91 145.55 519.95 144.61 519.02C146.66 519.59 148.74 520.14 150.77 520.67C155.66 521.95 160.72 523.27 165.5 525.07C171.56 527.35 177.61 529.99 183.45 532.53C187.29 534.2 191.25 535.93 195.19 537.54C196.18 537.94 197.37 537.83 198.53 537.72C199.05 537.67 199.59 537.62 200.09 537.62L222.56 544.05C221.57 544.14 220.58 544.27 219.61 544.39C216.94 544.73 214.18 545.08 211.59 544.68C205.52 543.74 199.4 542.38 193.49 541.06C191.09 540.53 188.6 539.97 186.16 539.46L181.76 538.32C181.76 538.32 181.68 538.32 181.64 538.34C181.61 538.36 181.59 538.4 181.58 538.45C180.84 556.79 186.29 571.31 197.78 581.63C208.33 591.1 224.04 596.73 243.22 597.9C243.28 597.9 243.31 597.88 243.34 597.85C243.37 597.81 243.38 597.77 243.36 597.72L238.89 584.63C238.89 584.63 238.84 584.55 238.8 584.54L237.95 583.04C237.95 583.04 237.91 582.99 237.87 582.98L232.5 581.17C235 577.01 240.49 573.78 244.82 575.56C249.73 577.58 254.58 579.95 259.28 582.24C261.23 583.19 263.25 584.18 265.24 585.12L264.85 586.37L250.65 582.76L245.84 581.47C245.84 581.47 245.75 581.47 245.72 581.5C245.69 581.53 245.67 581.57 245.67 581.62L245.86 583.45C245.97 584.56 246.07 585.51 246.18 586.45C247.207 595.697 252.34 600.323 261.58 600.33C262.55 600.36 263.55 600.42 264.51 600.48C266.6 600.61 268.75 600.74 270.85 600.57C279.66 599.86 288.62 599.07 297.29 598.31C312.04 597.01 327.29 595.68 342.31 594.66C374.98 592.45 407.26 594.29 445.69 597.75C454.76 598.57 464.01 599.24 472.96 599.9C477.15 600.21 481.36 600.52 485.57 600.84H485.58C485.65 600.84 485.7 600.79 485.72 600.73L489.09 582.63C489.09 582.63 489.09 582.54 489.05 582.51C489.02 582.48 488.98 582.46 488.93 582.47L465.2 585.23L464.98 584.15L469.71 582.42C470.21 582.18 470.71 581.94 471.24 581.69C471.34 581.71 471.59 581.78 471.59 581.78C471.61 581.78 471.64 581.78 471.66 581.78L475.96 580.67C475.96 580.67 476.05 580.72 476.1 580.71C476.86 580.47 477.62 580.22 478.37 579.98C485.33 577.72 492.53 575.38 500.12 578.2L500.46 578.49C500.46 578.49 500.53 578.52 500.57 578.52L500.98 578.44L502.33 579.31C502.79 580.73 502.76 581.84 502.24 582.6C501.38 583.86 499.3 583.98 497.92 584.06C497.48 584.09 497.09 584.11 496.82 584.16C493.2 584.85 493.42 586.6 493.7 588.82L493.74 589.14L493.51 592.45L489.29 600.59C489.29 600.59 489.27 600.69 489.3 600.73C489.33 600.77 489.38 600.79 489.43 600.78C511.65 597.03 533.1 592.61 551.39 579.78C558.32 574.92 566.91 567.99 571.91 557.49C571.91 557.47 571.92 557.45 571.92 557.43C571.92 557.41 571.92 557.39 571.91 557.37L572.98 555.24C572.98 555.24 572.99 555.2 573 555.19L576.26 547.53L576.84 546.26C576.84 546.26 576.85 546.22 576.85 546.2V544.89C576.85 544.89 576.83 544.8 576.8 544.77C576.76 544.75 576.71 544.74 576.67 544.77L575.97 545.1L563.94 547.45L556.28 548.38L555.1 548.54C553.82 548.71 552.54 548.88 551.28 549.05C547.59 548.82 543.91 548.6 540.23 548.37C541.44 548.19 542.64 548.01 543.85 547.83C547.34 547.31 550.94 546.77 554.47 546.16C569.38 543.57 581.93 539.08 592.84 532.44C595.69 530.71 598.91 529.47 602.02 528.28C603.41 527.75 604.84 527.2 606.22 526.61L607.15 528.22C605.88 534.5 600.79 536.98 595.87 539.38C594.51 540.04 593.11 540.72 591.8 541.48C591.76 541.5 591.74 541.54 591.73 541.59C591.73 541.63 591.74 541.68 591.78 541.71C599.89 548.83 607.64 550.56 616.14 547.17C616.9 546.87 617.78 546.8 618.63 546.74C618.76 546.74 618.9 546.72 619.03 546.71C615.31 548.44 611.59 550.17 607.87 551.9L591.42 546.47C591.42 546.47 591.33 546.47 591.29 546.49C591.25 546.52 591.23 546.56 591.24 546.61L591.4 548.65C590.9 575.49 587.68 604.24 581.27 639.12C581.27 639.17 581.27 639.21 581.31 639.25C581.34 639.28 581.39 639.29 581.44 639.28C590.15 636.92 596.65 637.31 602.53 640.55C604.04 641.38 605.53 642.3 605.75 643.6C605.89 644.44 605.5 645.36 604.56 646.42C603.67 646.19 602.76 645.93 601.89 645.67C599.89 645.08 597.82 644.48 595.75 644.27C589.39 643.64 583.31 643.55 579.05 649.42C578.25 651.22 577.44 653.01 576.64 654.81C574.88 658.73 573.07 662.77 571.33 666.78C561.6 689.21 543.43 703.4 528.71 713.24L478.19 735.26L463.98 738.81L439.65 743.14H436.18C436.18 743.14 436.1 743.16 436.08 743.19C436.05 743.22 436.04 743.26 436.05 743.3C436.18 744.46 436.33 745.58 436.46 746.68C436.77 749.13 437.06 751.44 437.22 753.77C437.38 756.14 437.41 758.57 437.43 760.91C437.44 761.95 437.45 762.99 437.48 764.02L436.62 770.77C436.62 770.77 436.62 770.85 436.66 770.88C436.69 770.91 436.73 770.92 436.77 770.92L455.36 769.34L452.81 771.44C452.03 771.71 451.25 771.98 450.47 772.25C450.43 772.25 450.38 772.27 450.31 772.28L422.26 776.13L420.96 774.14L424.53 773.17C426.73 773.44 428.48 773.04 429.72 771.98C430.99 770.9 431.67 769.19 431.76 766.89C431.96 761.33 432.16 755.58 431.4 750.04C430.99 747.11 430.56 745.39 429.45 744.63C428.18 743.77 426.06 744.21 422.72 745.02C421.39 745.09 420.05 745.17 418.72 745.24C415.93 745.4 413.04 745.56 410.2 745.7C377.05 747.37 351.63 746.67 327.75 743.42C319.71 742.33 311.58 740.82 303.73 739.37C300.16 738.71 296.47 738.03 292.85 737.39L289.4 736.48C289.29 736.31 289.16 736.21 289.01 736.18C288.86 736.15 288.7 736.18 288.53 736.29C287.31 735.92 286.09 735.54 284.86 735.17C284.86 735.17 284.79 735.16 284.75 735.17L281.6 734.11C281.6 734.11 281.55 734.09 281.52 734.11L278.29 732.97C278.29 732.97 278.22 732.97 278.19 732.97L274.99 731.88C274.99 731.88 274.93 731.87 274.88 731.88C274.87 731.88 274.85 731.9 274.84 731.91L267.17 730.79C267.17 730.79 267.08 730.79 267.05 730.83L265.96 732.01L264.84 734.03C264.84 734.03 264.81 734.06 264.8 734.08C264.8 734.08 264.73 734.23 264.72 734.25C264.7 734.28 264.7 734.32 264.72 734.35C264.27 735.69 263.82 737.02 263.36 738.35C262.02 742.27 260.63 746.32 259.54 750.38C259.32 751.22 260.04 752.29 260.73 753.32C261.04 753.78 261.36 754.25 261.59 754.69C261.61 754.72 261.63 754.74 261.66 754.76L270.98 758.3C270.85 758.33 270.73 758.39 270.61 758.48C269.82 758.6 269.02 758.71 268.23 758.82L246.48 754.86C246.48 754.86 246.44 754.86 246.42 754.86L243.2 752.74C243.2 752.74 243.14 752.71 243.1 752.72L242.08 751.83L241.15 750.91C241.47 750.87 241.79 750.81 242.11 750.75C242.99 750.6 243.91 750.43 244.75 750.56C246.69 750.86 248.59 751.31 250.6 751.79C251.44 751.99 252.29 752.19 253.16 752.39C253.19 752.39 253.23 752.39 253.26 752.37C253.29 752.35 253.31 752.32 253.32 752.28L255.74 741.19L260.37 727.99C260.39 727.93 260.37 727.86 260.31 727.82C257.84 726.45 255.39 725.08 252.95 723.71C246.61 720.16 240.06 716.49 233.52 713.12C231.89 712.28 229.92 712.08 228.02 711.88C227.15 711.79 226.25 711.7 225.38 711.55L209.86 711.9C209.79 711.87 209.76 711.9 209.57 712.13L202.39 710.9H202.37C196.55 707.46 191.98 707.87 188.01 712.16C187.38 712.84 186.55 713.37 185.75 713.87C185.33 714.14 184.9 714.41 184.49 714.7C180.28 717.77 178.15 720.63 177.78 723.68C177.4 726.82 178.89 730.26 182.46 734.5C182.48 734.52 182.5 734.53 182.53 734.54L183.39 735.42C183.36 735.47 183.37 735.54 183.41 735.58L183.65 735.85C184.26 736.53 184.86 737.2 185.47 737.88C185.54 738.44 185.62 738.99 185.69 739.55L184.72 739.77C184.42 739.65 184.11 739.58 183.79 739.56L181.6 738.45C181.6 738.45 181.56 738.44 181.54 738.43C180.87 738.08 180.19 737.72 179.52 737.37L178.54 736.41C178.54 736.41 178.55 736.38 178.55 736.36C178.55 736.32 178.53 736.29 178.51 736.26C178.21 735.86 177.9 735.46 177.59 735.06C176.92 734.19 176.23 733.3 175.61 732.38C171.86 726.78 169.86 724.13 167.74 724.1H167.7C165.56 724.1 163.41 726.79 159.36 732.47C159.23 732.66 159.21 732.91 159.18 733.32C159.16 733.57 159.14 733.88 159.09 734.28C159.09 734.32 159.09 734.36 159.12 734.39L176.86 754.33C176.86 754.33 176.9 754.38 176.95 754.4C176.99 754.4 177.03 754.4 177.06 754.38L178.08 755.75C179.38 757.04 180.7 758.37 181.96 759.65C184.72 762.44 187.58 765.33 190.52 768.03C210.87 786.73 235.51 799.15 265.81 806C266.02 806.09 266.22 806.2 266.42 806.3C266.86 806.52 267.31 806.76 267.79 806.87C289.49 812.26 313.19 815.98 340.23 818.25C352.13 819.25 364.1 819.74 376.14 819.74C406.85 819.74 437.95 816.5 468.98 810.06C489.81 805.74 508.89 798.84 525.7 789.55C543.37 779.79 559.19 767.05 572.7 751.66C580.57 742.71 588.94 733.92 597.03 725.42C600.71 721.55 604.52 717.56 608.23 713.6C608.25 713.57 608.27 713.54 608.27 713.5L609.23 712.57L609.34 712.46C609.36 712.44 609.37 712.42 609.38 712.4L610.28 711.38L612.47 710.25C612.47 710.25 612.49 710.24 612.5 710.23L613.55 709.23C613.55 709.23 613.57 709.22 613.58 709.21C613.97 708.82 614.36 708.43 614.75 708.04L615.83 706.9C616.26 706.19 616.7 705.48 617.13 704.77C617.15 704.74 617.16 704.72 617.15 704.7L618.08 703.63L619.3 701.45C619.3 701.45 619.32 701.4 619.32 701.38L620.19 700.29L621.36 698.1C621.36 698.1 621.37 698.07 621.38 698.06L622.55 695.93C622.55 695.93 622.56 695.9 622.57 695.88L623.69 693.75C623.69 693.75 623.71 693.7 623.71 693.67L624.82 691.57C624.82 691.57 624.84 691.51 624.84 691.49L625.94 689.39C625.94 689.39 625.97 689.33 625.96 689.29L626.8 688.25C626.8 688.25 626.81 688.23 626.82 688.22L627.11 687.59C627.83 686.01 628.55 684.43 629.28 682.85C629.29 682.83 629.3 682.81 629.3 682.78L631.27 679.45C631.27 679.45 631.29 679.39 631.29 679.37L632.4 677.22C632.4 677.22 632.42 677.17 632.42 677.15L633.49 675.02C633.49 675.02 633.51 674.98 633.51 674.96L634.61 672.82C634.61 672.82 634.63 672.78 634.63 672.76L635.73 670.63C635.73 670.63 635.75 670.59 635.75 670.57L636.84 668.44C636.84 668.44 636.86 668.38 636.86 668.35C637.21 667.64 637.56 666.94 637.91 666.23C637.91 666.21 637.92 666.19 637.92 666.17L639.06 664.06C643.15 658.22 646.61 651.13 641.33 642.88C640.25 641.19 639.65 639.14 639.07 637.16C638.83 636.35 638.59 635.52 638.31 634.72C632.1 616.59 631.04 597.24 634.87 572.04C635.46 572.79 635.94 573.43 636.38 574C637.24 575.14 637.87 575.96 638.58 576.71C646.13 584.57 654.08 589.61 662.89 592.13C671.05 594.47 677 594.8 682.16 593.2C687.35 591.6 691.99 587.98 697.23 581.47C697.53 581.09 697.84 580.72 698.15 580.35C698.65 579.74 699.16 579.12 699.65 578.49C718.05 554.73 731.8 532.48 741.67 510.49C745.15 502.74 747.01 496.06 744.77 488.69H744.73ZM681.71 470.57C670.18 474.75 663.33 483.12 661.9 494.78C660.9 502.91 664.11 510.33 670.71 515.12C676.94 519.64 678.24 525.64 679.21 532.44C679.59 535.13 680.09 537.85 680.58 540.48C680.8 541.7 681.03 542.91 681.24 544.11L681.66 550.8L680.6 552.67C678.28 548.74 676.79 544.26 675.36 539.93C672.71 531.93 669.98 523.66 661.87 518.43C660.57 517.59 659.34 515.8 658.88 514.08C657.56 509.15 656.4 504.08 655.27 499.18C654.85 497.36 654.43 495.53 654.01 493.71C655.61 483.44 661.15 474.8 669.6 469.39C678.4 463.76 689.47 462.25 699.99 465.24C708.52 467.67 713.94 472.17 716.54 478.98C716.22 478.79 715.89 478.6 715.57 478.42C714.64 477.9 713.68 477.35 712.89 476.66C703.59 468.5 693.1 466.45 681.71 470.58V470.57ZM468.31 283.5C467.83 283.6 467.37 283.83 466.93 284.06C466.74 284.16 466.54 284.26 466.34 284.35L463.95 284.79C463.95 284.79 463.92 284.79 463.9 284.81L462.54 285.64L451.42 288.79C453.83 286.44 456.23 284.09 458.64 281.73C464.93 275.57 471.44 269.19 477.96 263.05C480.64 260.53 483.6 258.21 486.47 255.97C487.77 254.95 489.12 253.9 490.4 252.85C490.83 252.61 491.7 252.14 491.7 252.14C513.5 242.13 534.41 245.6 553.83 262.46C575.19 281 589.87 305.11 603.07 328.21C603.42 328.82 603.66 329.52 603.89 330.2C604 330.52 604.11 330.85 604.22 331.13L604.43 332.79C592.69 320.76 578.31 307.19 560.54 297.29C546.23 289.33 531.14 284.14 515.69 281.89C509.6 281 503.38 280.56 497.06 280.56C487.67 280.56 478.05 281.54 468.31 283.5ZM579.9 455.8C567.78 487.41 544.65 506.5 511.16 512.56C476.34 516.29 448.25 504.01 427.71 476.05C427.27 475.46 426.8 474.88 426.35 474.32C426.13 474.05 425.91 473.79 425.72 473.55L415.35 450.89C415.15 447.58 414.84 444.21 414.55 440.95C413.9 433.72 413.23 426.24 413.58 418.94C414.5 399.55 421.44 382.07 434.2 366.98C452.61 345.2 479.01 334.11 506.61 336.53C534.09 338.94 558.02 354.38 572.26 378.88C576.18 385.62 578.69 393.34 581.12 400.81C582.24 404.25 583.4 407.81 584.68 411.24C586.42 428.62 584.91 442.78 579.91 455.81L579.9 455.8ZM224.65 544.3L228.17 544.47C228.02 544.62 227.87 544.79 227.73 544.95C227.28 545.45 226.78 546.01 226.44 545.97C225.95 545.9 225.49 545.33 225.05 544.78C224.92 544.62 224.79 544.46 224.66 544.31L224.65 544.3ZM387.38 514.49C387.67 513.06 387.97 511.57 388.2 510.11C391.82 506.34 396.18 505.86 400.82 508.7C405.95 511.85 407.92 515.81 406.83 520.81C406.55 522.11 406.41 523.47 406.29 524.78C406.15 526.16 406.02 527.59 405.7 528.94C404.75 533.03 403.17 536.92 398.09 537.64L396.84 537.74H394.86C389.51 535.26 386.42 530.52 386.18 524.39C386.05 521.12 386.73 517.74 387.39 514.48L387.38 514.49ZM348.72 493.63C348.13 493.94 347.53 494.26 346.94 494.59L351.93 488.21C360.64 481.64 372.15 478.7 382.73 480.35C390.13 481.5 396.18 484.87 399.82 489.83L383.59 486L382.69 485.59C382.63 485.56 382.56 485.59 382.52 485.64C372.62 482.67 363.22 484.32 353.79 490.7C352.18 491.79 350.43 492.73 348.73 493.63H348.72ZM364.97 525.03C364.37 528.79 362.27 532.78 359.74 534.97C357.14 537.22 354.34 538 351.87 537.18C349.18 536.29 347.14 533.59 346.29 529.76C344.43 521.43 345.59 514.33 349.85 508.06C355.23 505.61 360.1 506.65 364.31 511.14C364.4 512.54 364.57 513.96 364.72 515.34C365.09 518.56 365.47 521.89 364.97 525.02V525.03ZM323.41 483C304.41 504.85 277.26 515.76 248.94 512.95C220.59 510.14 196.1 494.08 181.75 468.9C181.13 467.82 180.53 466.7 179.95 465.62C179.68 465.11 179.4 464.61 179.13 464.1C178.99 463.67 178.85 463.23 178.72 462.79C178.43 461.86 178.13 460.9 177.78 459.97C167.25 431.67 169.52 404.02 184.52 377.81C201.17 348.72 232.09 333.01 265.23 336.8C301.95 341 332.38 368.68 340.96 405.68C341.93 409.88 342.54 414.24 343.13 418.46C343.4 420.4 343.68 422.42 343.99 424.39C344.04 447.84 337.31 467.02 323.4 483H323.41ZM280.61 581.8L337.52 575.14L341.23 577.32L276.86 584.88L276.62 584.37L280.6 581.8H280.61Z" fill="#5BDB5C"/>
<path d="M219.81 704.72C221.64 704.57 223.44 703.84 225.18 703.13C225.98 702.81 226.8 702.47 227.61 702.2C227.65 702.19 227.68 702.16 227.69 702.12C227.7 702.08 227.7 702.04 227.69 702C227.32 701.35 226.96 700.7 226.59 700.06C225.56 698.22 224.49 696.33 223.39 694.48C223.2 694.15 222.86 693.91 222.54 693.68C222.4 693.58 222.26 693.48 222.13 693.37C220.88 692.22 219.64 691.02 218.43 689.85C215.76 687.28 213.01 684.61 210.03 682.33C201.56 675.85 192.09 670.3 180.26 673.52C178.01 673.75 176.4 674.61 175.46 676.07C174.46 677.62 174.33 679.81 175.09 682.07C176.37 685.86 178.68 691.1 182.38 694.5C190.1 701.6 199.88 705 212.83 705C215.06 705 217.38 704.9 219.8 704.7L219.81 704.72Z" fill="#5BDB5C"/>
<path d="M345.79 671.75C331.43 670.8 317.04 670.4 302.65 669.97C295.22 669.75 287.77 669.93 279.83 669.93C280.13 687.03 282.6 702.21 288.27 716.84C289.89 721.27 289.36 727.81 294.96 728.96C313.15 732.7 331.51 735.63 349.84 738.69C351.07 738.89 353.32 737.88 353.8 736.84C359.65 724.15 363.18 710.86 363.42 696.8C363.91 690.61 364.41 684.41 364.9 678.22C364.9 677.51 364.91 676.81 364.92 676.1C364.85 675.74 364.78 675.38 364.72 675.02C358.41 673.89 352.14 672.18 345.79 671.76V671.75Z" fill="white"/>
<path d="M468.14 660.77C472.14 660.04 473.45 657.54 472.46 653.62C471.21 648.68 470.08 643.71 468.9 638.75C466.84 626.72 461.69 615.94 455.32 605.69C454.62 604.57 452.66 603.74 451.22 603.65C431.93 602.39 412.62 601.35 393.32 600.1C388.49 599.79 385.73 601.74 384.76 606.39C383.65 608.43 382.04 610.35 381.5 612.53C379.01 622.58 376.4 632.63 374.65 642.82C373.25 650.96 373.03 659.31 372.16 669.04C395.24 667.98 416.97 666.98 438.71 665.98C448.52 664.25 458.35 662.56 468.15 660.76L468.14 660.77Z" fill="white"/>
<path d="M244.4 643.69C245.22 645.62 245.71 646.53 246 647.5C249.88 660.45 250.24 660.7 263.88 659.22C265.14 659.08 266.38 658.71 267.65 658.59C271.9 658.18 273.81 655.64 273.65 651.62C273.44 646.54 272.93 641.47 272.55 636.39C270.22 626.9 268.01 617.38 265.42 607.97C265.11 606.86 262.74 605.81 261.22 605.62C255.27 604.87 249.23 604.78 243.31 603.88C235.08 602.64 226.93 600.9 218.33 599.29C214.7 608 212.31 616.98 212.83 626.61C212.54 637.34 218.94 644.25 226.36 650.7C228.59 652.64 230.34 655.13 232.3 657.37C231.47 657.36 230.65 657.34 229.82 657.33C228.04 656.21 226.26 655.09 224.47 653.97C220.68 651.83 216.88 649.68 211.98 646.91C212.65 654.22 212.83 660.07 213.78 665.8C215.2 674.39 219.79 681.25 226.22 687.11C230.86 691.34 236.33 695.24 236.71 702.48C237.3 704.21 237.36 706.81 238.56 707.54C245.53 711.8 252.7 715.75 260 719.42C261 719.93 264.17 718.63 264.49 717.59C266.98 709.68 269.02 701.64 271.2 693.63C271.67 689.83 272.28 686.04 272.58 682.23C273.57 669.35 272.93 668.46 260.64 664.42C248.97 660.58 247.29 661.4 242.85 672.95C242.77 673.16 242.34 673.24 241.55 673.66C241.36 670.74 241.43 668.01 240.91 665.41C240.57 663.71 239.36 662.18 238.54 660.58C239.3 658.47 240.82 654.24 240.82 654.24C241.92 651.01 243.01 647.79 244.41 643.69H244.4Z" fill="white"/>
<path d="M541.32 646.76C538.64 648.65 536.46 650.19 534.28 651.72C529.53 654.04 524.77 656.37 520.02 658.69C519.87 658.59 519.69 658.51 519.59 658.37C519.5 658.24 519.42 657.94 519.47 657.9C520.76 656.98 522.11 656.13 523.37 655.18C532.35 648.37 540.23 640.8 541.65 628.76C542.8 617.16 539.59 606.54 535.18 596.96C520.43 599.92 506.36 602.71 492.31 605.63C490.91 605.92 488.81 606.84 488.53 607.86C486.09 616.97 484 626.16 481.8 635.34C481.71 636.12 481.63 636.9 481.54 637.68C481.37 638.42 481.21 639.16 481.04 639.89C480.83 644.63 480.44 649.37 480.52 654.11C480.55 655.74 481.34 658.12 482.56 658.83C489.37 662.78 496.91 661.84 503.84 659.85C506.11 659.2 507.18 654.12 508.64 650.99C509.3 649.58 509.57 647.99 510.02 646.49C510.51 646.48 511 646.47 511.49 646.46C512.24 650.47 513 654.48 513.75 658.5C514.05 659.22 514.36 659.94 514.66 660.66C514.19 663.21 513.68 665.75 513.28 668.31C512.9 670.66 512.64 673.03 512.32 675.39C510.85 672.48 509.71 669.33 507.78 666.77C506.74 665.39 504.15 664.05 502.61 664.37C496.59 665.66 490.72 667.64 484.78 669.31C481.26 670.3 479.72 672.49 480.09 676.16C480.82 683.4 481.44 690.65 482.11 697.9C484.17 705 486.2 712.1 488.31 719.19C489.23 722.29 491.3 723.06 494.21 721.74C502.35 718.07 510.54 714.51 518.6 710.67C520.32 709.85 522.01 708.32 522.99 706.68C530.65 693.83 538.64 681.02 541.27 665.99C542.32 659.98 544.31 653.69 541.29 646.76H541.32Z" fill="white"/>
<path d="M350.59 603.7C349.95 602.02 346.98 600.09 345.18 600.18C330.05 600.91 314.94 602.14 299.81 603.09C296.09 603.32 294.74 605.28 294.71 608.66C287.46 622.35 283.87 637.15 281.15 652.28C280.34 656.77 282.01 658.35 285.8 659.87C298.8 665.11 312.5 665.83 326.2 666.72C339.07 667.39 351.94 668.06 364.94 668.74C366.52 656.12 363.49 645.32 361.34 634.43C357.81 624.16 354.45 613.83 350.57 603.7H350.59Z" fill="white"/>
<path d="M467.11 671.07C456.2 670.75 445.28 671 434.36 671C415.9 671.91 397.44 672.82 378.97 673.71C374.41 673.93 372.21 676.27 372.75 680.8C373.87 690.23 375.13 699.64 376.34 709.06C379.25 718.23 381.97 727.47 385.24 736.51C385.82 738.12 388.69 739.89 390.52 739.91C412.87 740.14 434.95 737.43 456.78 732.76C458.63 732.36 461.22 730.87 461.7 729.34C465.13 718.26 468.11 707.03 471.23 695.85C471.76 690.31 472.3 684.77 472.83 679.23C474.22 672.18 473.87 671.27 467.12 671.07H467.11Z" fill="white"/>
<path d="M254.46 352C293.91 352.04 322.82 375.75 329.11 408.77C333.92 434 319.71 462.31 295.05 476.66C257.37 498.58 210.36 483.94 193.12 443.98C183.88 422.56 187.94 401.55 201.03 382.67C215.14 362.31 235.17 352.42 254.46 351.99V352ZM231.61 439.67C231.59 447.73 237.73 454.04 245.65 454.1C253.78 454.17 260.42 447.62 260.36 439.6C260.3 432.22 253.79 425.92 246.14 425.84C237.98 425.76 231.63 431.8 231.61 439.67Z" fill="#F8BA1C"/>
<path d="M427.61 419.36C427.65 386.42 453.68 357.28 486.42 353.15C500.74 351.34 514.77 352.13 527.64 358.72C552.07 371.23 568.3 390.15 569.02 418.87C569.84 451.42 543.57 480.86 510.17 485.81C486.01 489.39 464.58 483.07 447.14 466.11C434.25 453.58 427.37 437.77 427.62 419.37L427.61 419.36ZM495.38 408.48C495.41 416.35 501.4 422.41 509.19 422.44C517.33 422.47 523.78 415.97 523.73 407.78C523.68 400.26 517.35 394.25 509.45 394.22C501.46 394.19 495.35 400.38 495.38 408.49V408.48Z" fill="#F8BA1C"/>
<path d="M359.52 584.61C365.91 584.68 372.33 584.45 378.7 584.86C404.83 586.55 430.93 588.56 457.06 590.19C465.54 590.72 474.08 590.32 482.58 590.7C484.06 590.77 485.46 592.58 486.89 593.58C486.49 595.7 486.1 597.81 485.56 600.71C472.18 599.68 458.92 598.81 445.68 597.62C411.27 594.53 376.82 592.19 342.28 594.53C318.44 596.14 294.65 598.52 270.83 600.44C267.77 600.69 264.66 600.29 261.58 600.19C255.86 599.21 249.86 598.54 250.68 590.33C264.24 594.67 277.63 591.29 291.1 589.59C302.61 588.14 314.16 586.88 325.73 586.04C336.97 585.23 348.26 585.05 359.53 584.6L359.52 584.61Z" fill="#008D00"/>
<path d="M75.05 546.4C73.16 539.88 70.45 533.46 69.59 526.8C68.66 519.61 69.35 512.19 69.5 504.88C69.64 497.88 68.21 491.26 61.43 488.18C54.42 484.99 47.47 487.16 41.32 491.46C39.55 492.7 38.06 494.35 36.45 495.81C37.63 490.4 38.81 484.99 39.98 479.58C46.05 476.08 51.73 471.15 58.28 469.35C76.99 464.19 98.04 483.51 93.24 501.13C91.82 506.33 88.77 512.06 84.69 515.33C78.71 520.12 77.7 525.87 77.12 532.5C76.71 537.16 75.76 541.77 75.06 546.4H75.05Z" fill="#008D00"/>
<path d="M518.89 544.13C521.45 544.13 524.01 544.12 526.57 544.11C545.59 543.95 562.54 537.17 578.67 527.79C591.1 520.56 604.1 516.02 618.74 518.92C620.15 519.2 621.56 519.69 622.86 520.31C628.66 523.08 628.9 524.71 624.35 529.39C623.34 530.43 622.36 531.51 621.42 532.52C624.52 539.507 623.993 544.147 619.84 546.44C618.58 546.61 617.23 546.54 616.09 547C606.84 550.68 599.07 547.88 591.87 541.56C597.95 538.05 605.67 536.29 607.29 528.16C606.95 527.57 606.61 526.98 606.27 526.4C601.75 528.33 596.92 529.76 592.76 532.29C580.89 539.52 568 543.64 554.44 545.99C549.29 546.89 544.1 547.6 538.93 548.4C532.25 546.97 525.57 545.54 518.89 544.11V544.13ZM613.15 538.16C612.89 537.62 612.63 537.08 612.37 536.54C610.62 537.5 608.86 538.45 607.11 539.4C607.36 539.87 607.61 540.35 607.86 540.82C609.62 539.93 611.39 539.05 613.15 538.16Z" fill="#008D00"/>
<path d="M420.75 774.03C401.41 774.35 382.05 775.28 362.73 774.8C346.76 774.4 330.76 772.76 315.47 767.4C313.61 766.75 311.82 765.89 308.51 764.5C328.96 765.45 347.81 767.23 366.63 766.93C385.51 766.63 404.35 764.25 423.21 762.78C424.1 763.3 425 763.81 425.37 764.03C426.76 762.72 427.87 761.68 428.98 760.63C428.96 761.75 428.95 762.87 428.93 763.99C428.17 766.55 427.4 769.12 426.64 771.68C425.94 772.12 425.24 772.56 424.53 773C423.27 773.34 422.01 773.68 420.75 774.02V774.03Z" fill="#008D00"/>
<path d="M607.88 552.02C607.44 552.51 607.01 553 606.55 553.51C607.8 554.06 608.96 554.58 610.12 555.09C605.84 554.92 607.01 558.04 606.87 560.42C606.27 570.85 606.09 581.32 604.91 591.69C603.83 601.2 601.67 610.58 599.99 620.02C595.98 627.1 595.17 627.5 589.81 624.86C591.72 611.7 594.33 598.53 595.34 585.24C596.13 574.78 595.08 564.17 594.51 553.64C594.42 551.92 592.57 550.3 591.54 548.63C591.47 547.77 591.41 546.91 591.38 546.58C596.93 548.41 602.41 550.22 607.88 552.03V552.02Z" fill="#008D00"/>
<path d="M301.19 237.65C293.84 234.64 286.7 230.77 279.08 228.81C267.63 225.87 255.83 224.27 244.18 222.1C237.54 221.72 230.91 221.35 224.28 220.97V221C225.68 220.46 227.07 219.91 228.47 219.37C251.64 217.57 274.43 218.08 295.16 230.88C295.45 230.45 295.73 230.02 296.02 229.59C293.44 227.45 291.1 224.89 288.23 223.26C279.79 218.47 270.49 216.8 260.88 216.56C254.87 216.41 248.86 216.13 242.85 215.9C241.39 215.51 239.92 215.13 238.46 214.74C238.15 214.66 237.84 214.57 237.53 214.49C237.66 213.8 237.78 213.11 237.91 212.42C242.18 209.08 246.74 210.12 251.67 210.73C258.62 211.59 265.76 210.75 272.78 211.25C283.43 212 292.79 215.88 298.31 225.56C300.27 228.99 300.44 233.44 301.42 237.43L301.22 237.63L301.19 237.65Z" fill="#008D00"/>
<path d="M514.52 584.85C533.41 580.55 549.32 571.48 560.72 555.49C562.33 553.24 562.9 550.24 563.95 547.59C567.96 546.81 571.97 546.02 575.98 545.24C576.22 545.56 576.46 545.89 576.7 546.21C576.51 546.63 576.32 547.06 576.12 547.48C575.02 550.07 573.92 552.65 572.82 555.24L572.85 555.19C572.47 555.94 572.09 556.69 571.72 557.44H571.78C570.45 558.25 568.74 558.76 567.85 559.91C558.66 571.66 547.39 580.8 533.33 585.78C522.25 589.7 510.79 592.61 499.42 595.63C497.28 596.2 493.47 597.36 493.64 592.5C493.72 591.39 493.79 590.27 493.87 589.16C500.76 587.73 507.65 586.29 514.53 584.86L514.52 584.85Z" fill="#008D00"/>
<path d="M483.73 224.39C482.62 223.43 481.51 222.47 480.4 221.51C503.05 214.49 525.17 215.55 546.68 225.9C547.59 226.34 548.72 226.33 549.75 226.53L549.69 226.48C550.75 227.18 551.8 227.88 552.86 228.58C555.01 230.43 557.17 232.29 559.44 234.24C557.08 237.77 554.86 236.18 552.51 234.55C542 227.29 530.38 222.91 517.74 221.2C510.81 221.5 503.88 221.81 496.96 222.11C494.02 222.51 491.09 222.9 488.15 223.3C487.39 223.61 486.63 223.93 485.87 224.24C485.16 224.28 484.45 224.33 483.74 224.37L483.73 224.39Z" fill="#008D00"/>
<path d="M254.94 255.19C253.78 256.02 252.32 257.8 251.51 257.54C238.26 253.28 225.8 256.36 213.48 261.23C212.4 261 211.24 260.42 210.26 260.64C208.64 261.01 207.14 261.9 205.58 262.57C206.74 261.16 207.63 259.33 209.09 258.39C223.76 248.96 239.04 247.34 254.94 255.2V255.19Z" fill="#008D00"/>
<path d="M140.92 516.7C141.99 517.39 143.06 518.08 144.12 518.77C147.73 522.33 151.18 526.08 155.01 529.4C157.3 531.38 160.16 532.71 162.76 534.33C162.46 534.92 162.21 535.99 161.85 536.03C151.88 537.11 141.69 541.66 132.21 534.34C131.58 534.08 130.95 533.82 130.32 533.57C130.36 533.19 130.41 532.8 130.45 532.42C133.88 532.76 137.3 533.11 140.73 533.45C142.91 536.82 145.86 535.21 147.6 533.61C148.38 532.89 146.91 529.7 146.46 527.64C144.2 524.37 141.95 521.1 139.69 517.83C140.1 517.46 140.5 517.08 140.91 516.71L140.92 516.7Z" fill="#008D00"/>
<path d="M186.7 543.31C186.5 542.08 186.3 540.84 186.1 539.61C194.57 541.4 203 543.51 211.54 544.84C215.33 545.43 219.37 544.43 223.3 544.15C223.64 544.06 223.98 544.06 224.32 544.15C225.01 544.85 225.64 545.99 226.41 546.1C227 546.19 227.79 544.98 228.49 544.35C228.94 544.3 229.4 544.24 229.85 544.19C233.53 544.16 237.21 544.13 240.89 544.1C240.52 544.87 240.15 545.64 239.79 546.41C227.08 549.8 214.3 548.94 201.51 546.99C198.49 546.53 195.5 545.83 192.5 545.24C190.57 544.61 188.64 543.97 186.71 543.33L186.7 543.31Z" fill="#008D00"/>
<path d="M222.04 693.48C214.95 693.86 210.81 688.44 205.59 685.13C204.89 684.68 204.18 684.24 203.48 683.79L203.43 683.76C199.45 681.9 195.46 680.03 191.48 678.17C189.74 677.43 188.02 676.66 186.27 675.96C184.29 675.17 182.28 674.43 180.28 673.68C191.97 670.5 201.25 675.81 209.96 682.46C214.28 685.76 218.04 689.79 222.05 693.48H222.04Z" fill="#008D00"/>
<path d="M238.74 584.69C239.21 588.25 239.68 591.81 240.26 596.22C235.39 594.97 230.92 593.82 226.46 592.67C227.27 589.56 227.81 586.21 232.05 585.95C232.07 585.57 232.08 585.19 232.1 584.81L232.13 584.78C232.18 583.61 232.24 582.44 232.29 581.27C234.13 581.89 235.97 582.51 237.82 583.14C238.14 583.71 238.46 584.27 238.78 584.84L238.75 584.7L238.74 584.69Z" fill="#008D00"/>
<path d="M203.43 263.87C203.07 264.23 202.71 264.59 202.34 264.96C202.7 264.6 203.06 264.24 203.43 263.87Z" fill="#008D00"/>
<path d="M344.13 424.38C343.14 418.13 342.52 411.8 341.09 405.65C332.61 369.07 302.25 340.9 265.25 336.67C232.97 332.98 201.35 348.14 184.4 377.75C169.33 404.08 167.05 431.55 177.65 460.03C178.15 461.39 178.55 462.78 179 464.16C177.53 463.23 175.6 462.62 174.66 461.31C159.19 439.73 156.78 415.61 161.13 390.23C161.38 388.8 161.49 387.34 161.67 385.9C162.48 384.04 165.51 382.22 161.8 380.26C164.72 372.66 167.64 365.07 170.56 357.47C177.88 348.45 184.45 338.67 192.68 330.57C210.9 312.65 233.23 303.43 258.95 304.8C279.29 305.89 297.52 313.25 313.1 326.78C333.05 344.1 344.22 365.81 346.36 392.13C346.88 398.48 347.13 404.84 347.5 411.2C346.37 415.59 345.25 419.99 344.12 424.38H344.13Z" fill="#008D00"/>
<path d="M584.81 411.19C580.75 400.35 578.12 388.67 572.38 378.8C542.34 327.14 472.66 321.27 434.09 366.88C421.5 381.77 414.36 399.42 413.44 418.93C412.94 429.54 414.55 440.25 415.21 450.92C408.54 443.85 406.32 434.81 404.69 425.73C403.38 418.42 403.14 410.91 402.42 403.49C404.23 388.64 406.43 373.99 413.27 360.3C424.58 337.65 441.44 321.04 464.78 311.19C469.12 309.36 473.76 308.25 478.26 306.81C484.25 306.43 490.24 305.85 496.24 305.72C525.03 305.08 546.5 318.6 562.9 341.12C575 357.74 582.13 376.64 585.6 396.81C586.39 401.43 585.13 406.4 584.81 411.2V411.19Z" fill="#008D00"/>
<path d="M265.93 525.81C270.76 525.32 275.6 524.83 280.43 524.34C272.57 526.91 264.87 530.35 256.81 531.91C226.34 537.81 202.47 524.56 181.73 504.14C176.97 499.46 174.24 492.72 170.58 486.92C171.32 486.57 172.05 486.21 172.79 485.86C173.13 486.5 173.48 487.15 173.82 487.79C174.21 488.26 174.6 488.73 174.99 489.19L174.96 489.14C175.63 490.94 175.81 493.23 177.05 494.44C182.72 499.97 188.34 505.65 194.62 510.45C215.55 526.47 239.29 531.65 265.18 527.51C265.52 527.46 265.69 526.39 265.94 525.8L265.93 525.81Z" fill="#008D00"/>
<path d="M347.45 507.86C348.22 507.89 348.98 507.92 349.75 507.96C345.17 514.68 344.41 522.01 346.15 529.8C347.84 537.39 353.99 540.12 359.83 535.08C362.53 532.75 364.54 528.64 365.11 525.06C365.83 520.55 364.75 515.76 364.44 511.1C369.58 513.26 368.74 518.27 369.26 522.26C369.86 526.91 369.33 531.7 369.29 536.42C368.96 537.12 368.64 537.82 368.31 538.52C363.97 538.98 359.63 539.44 355.29 539.9C354.56 539.84 353.82 539.77 353.09 539.71C352.64 539.71 352.19 539.71 351.74 539.71C350.5 539.48 349.26 539.26 348.02 539.03C339.64 537.44 339.83 537.43 339.64 529.05C339.46 520.88 341.58 513.72 347.46 507.87L347.45 507.86Z" fill="#008D00"/>
<path d="M152.84 540.74C155.14 539.96 157.43 539.18 159.73 538.4C155.76 559.79 155.08 581.25 158.25 602.8C158.74 606.15 158.07 608.63 154.11 608.92C153.38 595.29 152.28 581.66 152.07 568.03C151.94 560.08 153.28 552.1 153.82 544.13C153.9 543.03 153.19 541.87 152.84 540.73V540.74Z" fill="#008D00"/>
<path d="M367.92 414.97C372.88 414.52 377.84 413.84 382.81 413.72C384.56 413.68 386.35 415 388.12 415.69C387.76 416.03 387.39 416.37 387.03 416.7C384.11 416.65 381.19 416.59 378.27 416.54C375.29 416.57 372.31 416.69 369.34 416.57C368.84 416.55 368.39 415.52 367.92 414.96V414.97Z" fill="#008D00"/>
<path d="M170.14 486.07C168.77 484.58 166.55 483.1 170.07 481.53C170.24 482.07 170.41 482.62 170.58 483.16C170.43 484.13 170.28 485.1 170.14 486.07Z" fill="#008D00"/>
<path d="M280.37 524.38C281.47 524.04 282.58 523.7 283.68 523.35C282.58 523.69 281.47 524.03 280.37 524.38Z" fill="#008D00"/>
<path d="M391.68 416.8C391.61 416.02 391.53 415.23 391.46 414.45C391.93 415.08 392.4 415.71 392.88 416.34C392.65 416.56 392.43 416.78 392.21 417.02C391.99 417.05 391.81 416.98 391.69 416.8H391.68Z" fill="#008D00"/>
<path d="M302.42 238.61C302.58 238.8 302.74 239 302.9 239.19C302.72 239.02 302.54 238.84 302.36 238.67L302.42 238.61Z" fill="#008D00"/>
<path d="M302.36 238.67C301.97 238.33 301.58 237.99 301.19 237.66L301.39 237.46C301.73 237.84 302.08 238.23 302.42 238.62L302.36 238.68V238.67Z" fill="#008D00"/>
<path d="M167.75 479.64C167.84 479.76 168 479.87 167.99 479.97C167.99 480.07 167.81 480.17 167.71 480.27C167.62 480.16 167.47 480.05 167.47 479.94C167.47 479.83 167.64 479.74 167.74 479.64H167.75Z" fill="#008D00"/>
<path d="M392.88 416.34C393.03 416.6 393.18 416.86 393.34 417.12C392.96 417.09 392.59 417.05 392.21 417.02C392.43 416.79 392.65 416.57 392.88 416.35V416.34Z" fill="#008D00"/>
<path d="M605.52 199.29C610 210.57 614.47 221.85 618.95 233.13C621.54 243.87 623.94 254.66 626.78 265.32C629.23 274.47 627.09 283.19 624 291.46C621.19 299 620.91 305.98 624.53 312.91C629.39 322.23 627.2 332.19 627.77 341.9C628.5 365.25 629.14 388.6 629.99 411.94C630.52 426.5 631.41 441.05 632.09 455.61C632.17 457.33 631.95 459.06 630.68 461.09C628.94 456.64 626.95 452.27 625.49 447.72C620.48 432.1 616.86 416.23 615.45 399.77C613.81 380.59 611.28 361.48 608.76 342.39C608.34 339.19 606.05 336.24 604.62 333.17C604.53 332.48 604.44 331.79 604.36 331.11C604.76 327.43 606.37 323.37 605.36 320.13C598.3 297.33 590.94 274.61 583.17 252.04C579.91 242.58 575.69 233.41 571.44 224.33C566.88 214.6 561.78 205.12 556.77 195.25C556.74 195.33 556.75 194.82 556.99 194.68C564.28 190.35 571.4 185.65 579.01 181.98C581.87 180.6 584.12 179.62 584.91 176.49C590.77 182.61 596.67 188.7 602.46 194.88C603.67 196.17 604.5 197.81 605.51 199.29H605.52Z" fill="#008D00"/>
<path d="M602.41 712.3C595.29 720.12 587.88 727.71 581.08 735.8C551.13 771.45 514.96 796.27 468.21 805.04C433.63 811.53 398.99 815.85 363.88 814.4C334.4 813.18 305.01 810.29 276.15 803.59C275.32 803.4 274.58 802.83 273.8 802.44C285.37 803.67 296.93 804.92 308.5 806.11C314.83 806.76 321.17 807.8 327.51 807.77C348.44 807.68 369.38 807.49 390.29 806.76C415.26 805.88 439.87 802.09 464.06 795.76C465.96 795.26 467.76 794.38 469.62 793.68C481.9 789.69 494.3 786.07 506.41 781.63C522.76 775.64 536.87 766.03 548.85 753.32C562.46 738.87 577.1 725.26 589.57 709.89C606.02 689.62 616.87 666.2 618.79 639.74C620.02 622.83 619.57 605.81 620.08 588.84C620.21 584.37 620.2 579.62 625.01 576.2C625.2 578.04 625.47 579.88 625.55 581.72C625.92 589.91 626.3 598.1 626.58 606.3C627.09 621.04 630.84 635.07 636.13 648.7C637.73 652.84 637.55 656.3 635.29 660.05C626.54 674.59 618.01 689.26 609.22 703.77C607.35 706.85 604.7 709.46 602.42 712.29L602.41 712.3Z" fill="#008D00"/>
<path d="M737.6 481.56C738.66 485.97 739.72 490.39 740.79 494.8C730.53 525.32 712.35 551.25 693.51 576.83C689.15 582.74 684.55 587.67 676.52 588.14C666.75 588.72 657.5 587.32 649.4 581.61C645.08 578.57 641.29 574.78 637.26 571.33C637.57 570.87 637.88 570.41 638.19 569.95C641.49 570.96 644.87 571.75 648.06 573.02C664.06 579.39 677.12 577.02 689.01 564.69C710.21 542.7 725.79 517.27 734.94 488.02C735.63 485.81 736.71 483.71 737.61 481.57L737.6 481.56Z" fill="#008D00"/>
<path d="M719.04 485.19C719.95 489.07 720.86 492.95 721.76 496.83C721.28 497.09 720.8 497.34 720.31 497.6C715.16 492.21 709.46 488.39 701.62 489.18C696.46 489.7 692.51 492.18 691.53 496.93C690.3 502.86 689.76 509.13 690.21 515.16C691.05 526.69 690.03 537.74 684.96 548.21C684.42 549.33 682.88 549.97 681.8 550.83C681.66 548.59 681.52 546.35 681.38 544.1C681.97 538.28 683.65 532.32 682.9 526.68C681.56 516.64 678.72 506.8 676.54 496.87C674.96 489.66 677.44 483.91 683.94 480.29C689.72 477.08 696.1 475.72 702.38 477.73C708.14 479.57 713.5 482.66 719.04 485.2V485.19Z" fill="#008D00"/>
<path d="M388.06 510.05C387.32 514.84 385.84 519.65 386.02 524.4C386.25 530.23 389.06 535.23 394.81 537.88C394.79 538.26 394.77 538.64 394.74 539.02C392.54 538.88 390.33 538.74 388.13 538.59C382.04 537 380.81 532.76 381.34 527.07C381.94 520.67 381.16 513.9 388.05 510.05H388.06Z" fill="#008D00"/>
<path d="M397.98 539.02C397.54 538.99 397.1 538.96 396.66 538.93C396.76 538.59 396.81 538.24 396.82 537.88C397.24 537.85 397.66 537.81 398.08 537.78C398.05 538.19 398.01 538.6 397.98 539.01V539.02Z" fill="#008D00"/>
<path d="M456.22 766.12C452.76 766.75 449.31 767.51 445.82 767.97C442.51 768.4 438.2 770.21 438.6 763.9C439.31 763.48 440.01 763.05 440.72 762.63C447.4 761.98 454.07 761.29 460.76 760.71C462.67 760.54 464.6 760.68 466.71 761.88C463.22 763.3 459.72 764.71 456.23 766.13L456.22 766.12Z" fill="#008D00"/>
<path d="M271.6 802.62C269.39 801.83 267.19 801.03 264.98 800.24C267.93 800.98 270.88 801.72 273.83 802.46C273.08 802.51 272.34 802.57 271.59 802.62H271.6Z" fill="#008D00"/>
<path d="M265.06 800.28C264.72 800.26 264.38 800.23 264.05 800.2C264.39 800.23 264.73 800.25 265.06 800.28Z" fill="#008D00"/>
<path d="M186.95 678.14C186.96 678.49 186.95 678.84 186.89 679.18C185.73 678.8 184.58 678.42 183.42 678.04C183.51 677.77 183.6 677.49 183.69 677.22C184.78 677.53 185.86 677.83 186.95 678.14Z" fill="#008D00"/>
<path d="M494.72 257.49C495.41 257.83 496.1 258.18 496.79 258.52C496.14 259.21 495.49 259.9 494.83 260.58C490.82 262.03 486.82 263.48 482.81 264.93C486.78 262.45 490.75 259.97 494.71 257.49H494.72Z" fill="#008D00"/>
</g>
<defs>
<clipPath id="clip0_1_3">
<rect width="753.92" height="828" fill="white"/>
</clipPath>
</defs>
</svg>
